<svg xmlns="http://www.w3.org/2000/svg" viewBox="0.15000000596046448 12.800000190734863 124.5999984741211 53.95000076293945" data-asc="1.072" width="124.5999984741211" height="53.95000076293945"><defs/><g><g><g transform="translate(0, 0)"><path d="M0.60 13.65Q3.15 13.65 7.95 13.45Q12.75 13.25 14.30 13.25L15.65 13.25Q22.20 13.25 25.40 15.92Q28.60 18.60 28.60 22.95Q28.60 29.15 20.50 31.55L20.50 31.70Q25.20 32.40 27.93 35.38Q30.65 38.35 30.65 42.50Q30.65 48.05 26.88 51.15Q23.10 54.25 15.80 54.25Q13.80 54.25 9.33 53.93Q4.85 53.60 2.20 53.60Q1.90 53.60 1.25 53.63Q0.60 53.65 0.30 53.65Q0 52.75 0.30 51.85L4.45 51.30Q4.65 49.40 4.65 45.45L4.65 16L0.60 15.50Q0.40 14.75 0.60 13.65M14 33.30L10 33.30L10 51.40Q12.55 51.85 14.05 51.95Q20.10 51.95 22.40 49.68Q24.70 47.40 24.70 42.55Q24.70 38.65 21.88 35.98Q19.05 33.30 14 33.30M14.35 15.35Q11.85 15.35 10.20 15.70Q10 17.60 10 21.95L10 30.80L13.90 30.80Q18.55 30.80 20.68 28.90Q22.80 27 22.80 23.25Q22.80 19.45 20.48 17.40Q18.15 15.35 14.35 15.35ZM42.95 21.90L42.95 51.05L47 51.80Q47.20 52.60 47 53.80Q43.85 53.65 40.55 53.65Q38.25 53.65 34.05 53.75Q33.75 52.80 34.05 51.80L38 51.25Q38.20 48.50 38.20 44.90L38.20 16.25L34.10 15.75Q33.90 15 34.10 13.85Q37.55 13.60 42.70 12.80Q43.15 13.30 43.20 13.80Q42.95 15.10 42.95 21.90ZM50.20 40.30Q50.20 37.30 51.08 34.67Q51.95 32.05 53.60 30.10Q55.25 28.15 57.58 27.02Q59.90 25.90 62.80 25.90Q65.65 25.90 68 27.02Q70.35 28.15 72.03 30.10Q73.70 32.05 74.60 34.67Q75.50 37.30 75.50 40.30Q75.50 43.40 74.58 46Q73.65 48.60 71.98 50.52Q70.30 52.45 67.95 53.52Q65.60 54.60 62.80 54.60Q59.85 54.60 57.53 53.55Q55.20 52.50 53.58 50.60Q51.95 48.70 51.08 46.08Q50.20 43.45 50.20 40.30M57.50 31.10Q55.35 34.15 55.35 40.30Q55.35 43.35 55.93 45.65Q56.50 47.95 57.50 49.48Q58.50 51 59.85 51.75Q61.20 52.50 62.80 52.50Q64.35 52.50 65.75 51.75Q67.15 51 68.15 49.48Q69.15 47.95 69.75 45.65Q70.35 43.35 70.35 40.30Q70.35 37.25 69.75 34.92Q69.15 32.60 68.13 31.07Q67.10 29.55 65.73 28.77Q64.35 28 62.80 28Q59.70 28 57.50 31.10ZM83.65 54.15Q84.10 54.35 84.40 55Q82.75 56.35 82.75 59.05Q82.75 61.45 84.95 62.90Q87.15 64.35 90.65 64.35Q94.25 64.35 96.65 63.03Q99.05 61.70 99.05 59.30Q99.05 56.70 98.10 55.48Q97.15 54.25 94.30 54L84.95 53.15Q83.40 52.95 82.38 51.52Q81.35 50.10 81.35 48.75L84.70 43.20Q82.40 41.90 81.23 39.75Q80.05 37.60 80.05 35.35Q80.05 31.10 83.20 28.50Q86.35 25.90 90.45 25.90Q94.40 25.90 97.40 28Q97.65 21.15 102.50 20.90Q103.80 21.20 103.80 23.05Q103.80 24.05 103.60 25.25Q101.65 25.40 100.40 26.52Q99.15 27.65 98.60 29.10Q101.10 31.60 101.10 35.35Q101.10 39.30 97.90 41.92Q94.70 44.55 90.45 44.55Q88.20 44.55 86.40 43.95L84.70 48.40L97.15 49.65Q100.05 50 101.58 51.77Q103.10 53.55 103.10 56.40Q103.10 61.40 99.50 64.08Q95.90 66.75 89.75 66.75Q84.65 66.75 81.80 64.90Q78.95 63.05 78.95 59.95Q78.95 57.85 80.30 56.23Q81.65 54.60 83.65 54.15M84.55 35.35Q84.55 38.25 86.18 40.30Q87.80 42.35 90.50 42.35Q93.15 42.35 94.85 40.33Q96.55 38.30 96.55 35.35Q96.55 32.15 94.88 30.02Q93.20 27.90 90.50 27.90Q87.95 27.90 86.25 30.05Q84.55 32.20 84.55 35.35ZM114.95 52.40Q117.65 52.40 118.95 51.15Q120.25 49.90 120.25 48.25Q120.25 47.30 119.95 46.50Q119.65 45.70 118.98 44.95Q118.30 44.20 117.20 43.48Q116.10 42.75 114.45 41.90Q112.40 40.85 110.93 39.90Q109.45 38.95 108.50 37.90Q107.55 36.85 107.08 35.65Q106.60 34.45 106.60 32.95Q106.60 31.15 107.25 29.82Q107.90 28.50 109.08 27.63Q110.25 26.75 111.85 26.32Q113.45 25.90 115.40 25.90Q119.30 25.90 123.00 27.80L123.00 34.20L120.65 34.20L119.55 28.80Q117.35 27.75 114.90 27.75Q110.80 27.75 110.80 31.10Q110.80 32.90 112.15 34.40Q113.50 35.90 116.50 37.40Q118.55 38.45 120.10 39.40Q121.65 40.35 122.68 41.40Q123.70 42.45 124.23 43.67Q124.75 44.90 124.75 46.45Q124.75 48.20 124.00 49.70Q123.25 51.20 121.90 52.27Q120.55 53.35 118.65 53.98Q116.75 54.60 114.45 54.60Q110.00 54.60 106.10 52.70L106.10 46.30L108.45 46.30L109.55 51.25Q112.10 52.40 114.95 52.40Z"/></g></g></g></svg>