<?xml version="1.0" standalone="no"?>
<!DOCTYPE svg PUBLIC "-//W3C//DTD SVG 20010904//EN"
 "http://www.w3.org/TR/2001/REC-SVG-20010904/DTD/svg10.dtd">
<svg version="1.0" xmlns="http://www.w3.org/2000/svg"
 width="512.000000pt" height="512.000000pt" viewBox="0 0 512.000000 512.000000"
 preserveAspectRatio="xMidYMid meet">

<g transform="translate(0.000000,512.000000) scale(0.100000,-0.100000)"
fill="#000000" stroke="none">
<path d="M2330 5109 c-205 -19 -465 -77 -646 -144 -55 -20 -166 -70 -249 -110
-279 -136 -450 -260 -680 -490 -230 -230 -354 -401 -490 -680 -89 -183 -136
-306 -180 -479 -113 -445 -113 -847 0 -1292 44 -173 91 -296 180 -479 136
-279 260 -450 490 -680 230 -230 401 -354 680 -490 183 -89 306 -136 479 -180
445 -113 847 -113 1292 0 173 44 296 91 479 180 279 136 450 260 680 490 230
230 354 401 490 680 89 183 136 306 180 479 113 445 113 847 0 1292 -44 173
-91 296 -180 479 -136 279 -260 450 -490 680 -230 230 -401 354 -680 490 -183
89 -306 136 -479 180 -297 76 -595 101 -876 74z m-1666 -1570 c15 -11 286
-359 604 -772 l577 -751 3 772 2 772 120 0 120 0 0 -1006 0 -1006 -95 4 c-93
3 -95 4 -129 38 -19 19 -282 359 -586 755 -304 396 -559 728 -568 737 -16 16
-17 -37 -14 -757 l2 -775 -120 0 -120 0 0 1005 0 1005 89 0 c75 0 92 -3 115
-21z m2168 12 c17 -6 117 -176 390 -662 201 -360 375 -676 386 -704 l20 -50
16 39 c9 21 16 41 16 44 0 3 163 302 363 665 271 493 368 661 385 668 13 5 75
9 138 9 l114 0 0 -1005 0 -1005 -115 0 -115 0 0 803 0 802 -345 -630 c-223
-407 -356 -640 -376 -659 -29 -26 -37 -28 -91 -24 -46 3 -64 10 -83 29 -13 13
-177 301 -366 639 -188 338 -345 618 -348 622 -3 4 -6 -349 -6 -785 l0 -792
-117 -3 -118 -3 0 1006 0 1005 114 0 c63 0 125 -4 138 -9z"/>
</g>
</svg>
