<svg xmlns="http://www.w3.org/2000/svg" width="712" height="374" viewBox="0 0 712 374" version="1.1">
	<path d="M 22 189.500 L 22 350 41.060 350 L 60.120 350 59.810 228.553 C 59.587 141.045, 59.808 106.797, 60.602 106.001 C 61.733 104.867, 61.156 104.132, 165.532 240 C 217.264 307.340, 244.966 342.761, 248.351 345.896 C 251.147 348.484, 259.791 349.807, 274.750 349.937 L 282 350 282 189.500 L 282 29 262.504 29 L 243.008 29 242.754 152.098 L 242.500 275.197 232.961 262.848 C 227.715 256.057, 216.240 241.127, 207.461 229.672 C 198.683 218.216, 185.875 201.534, 179 192.600 C 172.125 183.666, 159.300 166.980, 150.500 155.520 C 126.973 124.880, 80.290 64.723, 66.500 47.276 C 59.209 38.051, 53.263 31.486, 51.349 30.546 C 48.993 29.390, 44.892 29, 35.099 29 L 22 29 22 189.500 M 360 189.500 L 360 350 366.343 350 C 369.832 350, 378.157 349.706, 384.843 349.346 L 397 348.693 397.001 279.596 C 397.002 193.525, 398.090 97.671, 399.054 98.714 C 399.645 99.353, 413.399 123.675, 425.795 146 C 427.170 148.475, 430.187 153.875, 432.500 158 C 434.813 162.125, 437.956 167.750, 439.484 170.500 C 472.806 230.472, 500.990 280.237, 508.669 292.661 C 514.005 301.293, 517.261 303, 528.385 303 C 534.195 303, 536.257 302.585, 538.251 301.017 C 541.469 298.486, 549.693 285.141, 565.994 256 C 568.917 250.775, 572.198 244.925, 573.286 243 C 576.181 237.876, 584.097 223.549, 588.480 215.500 C 590.576 211.650, 597 199.950, 602.756 189.500 C 608.512 179.050, 614.699 167.800, 616.505 164.500 C 618.311 161.200, 620.905 156.475, 622.268 154 C 624.748 149.496, 638.349 124.567, 648.893 105.201 L 654.500 94.901 654.754 222.451 L 655.008 350 673.504 350 L 692 350 692 189.500 L 692 29 675.250 29.011 C 651.080 29.027, 651.984 28.751, 646.189 37.879 C 643.528 42.070, 638.402 50.675, 634.799 57 C 625.102 74.018, 610.800 99.521, 606.479 107.500 C 604.394 111.350, 598.210 122.600, 592.738 132.500 C 587.265 142.400, 581.308 153.200, 579.499 156.500 C 577.690 159.800, 575.101 164.525, 573.744 167 C 538.444 231.409, 533.518 240.662, 530.485 248.250 C 527.952 254.587, 526 256.881, 526 253.519 C 526 251.999, 519.145 238.442, 510.316 222.500 C 507.575 217.550, 503.620 210.350, 501.528 206.500 C 495.644 195.670, 459.109 129.941, 451.503 116.500 C 429.879 78.285, 412.236 47.824, 406.975 39.621 C 399.837 28.491, 401.363 29.027, 376.750 29.011 L 360 29 360 189.500" stroke="none" fill="#ffffff" fill-rule="evenodd"/>
</svg>